<?xml version="1.0" encoding="iso-8859-1"?>
<svg 
	 xmlns="http://www.w3.org/2000/svg" 
	 xmlns:xlink="http://www.w3.org/1999/xlink" >
	<defs>
		<symbol id="icon-magnifying-glass" viewBox="0 0 512 512">
			<path
	     d="M 44.435284,510.5211 C 34.030614,508.25667 25.326094,503.33424 16.995926,495.00407 -0.92140241,477.08675 -4.712542,453.36186 6.608542,430 10.097447,422.8004 13.04748,419.69002 80.261813,352.3433 L 150.28061,282.18659 145.25308,270.8433 C 125.38782,226.02253 122.84982,177.98265 137.92413,132.11938 155.42828,78.863403 195.15518,36.130088 247.16383,14.612757 270.46533,4.9723165 292.95592,0.66569903 320,0.66569903 c 40.22254,0 73.80137,10.14573397 106.64398,32.22213397 30.57807,20.554198 53.69281,47.918808 68.43989,81.023247 30.02485,67.40013 18.91028,145.06306 -28.93755,202.2008 -38.69847,46.21199 -100.6739,72.13359 -160.39632,67.08674 -24.10013,-2.03659 -42.83613,-6.80859 -64.5933,-16.4517 L 229.81341,361.71939 159.6567,431.81568 89.5,501.91196 81,505.87186 c -12.97878,6.04643 -23.814325,7.42418 -36.564716,4.64924 z m 22.277203,-28.64767 c 5.478344,-2.01297 9.358153,-5.689 72.628473,-68.81387 l 66.84097,-66.68729 -6.84097,-5.5517 c -8.74889,-7.10006 -21.06151,-19.41269 -28.16161,-28.16164 l -5.55179,-6.84107 -66.263104,66.34939 c -71.051248,71.14377 -69.893267,69.82114 -71.05456,81.15782 -1.634518,15.95636 11.594654,30.47914 27.902591,30.63104 2.591868,0.0241 7.316868,-0.91307 10.5,-2.08268 z M 353.5,348.65913 c 55.5411,-12.52444 100.52662,-52.55737 118.00655,-105.01486 6.4686,-19.41234 7.89069,-28.71983 7.89069,-51.64427 0,-22.54099 -1.40893,-32.05452 -7.4789,-50.5 C 457.8989,98.897611 423.61976,61.875729 382.06057,44.452519 331.10284,23.089079 272.04222,29.684531 227.18768,61.747576 193.72768,85.665544 171.76293,119.55839 162.86569,161 c -3.06636,14.28253 -3.31949,44.3869 -0.50029,59.5 5.2675,28.23794 18.44109,55.4555 37.25918,76.98009 22.80356,26.08326 54.96748,44.77096 88.42611,51.37684 15.35441,3.03148 14.87394,2.9959 35.44931,2.6251 15.74544,-0.28376 20.88422,-0.7673 30,-2.8229 z M 212.32118,198.81127 c -4.00949,-1.93843 -4.75588,-5.80965 -3.44697,-17.87785 2.83245,-26.11531 13.71326,-49.24842 31.71385,-67.4251 19.45522,-19.645534 43.86846,-30.753794 72.62377,-33.04451 l 8.71182,-0.694004 3.03818,3.038174 c 3.30316,3.303166 3.63402,4.790169 1.90845,8.577378 -1.47459,3.236364 -4.6266,4.332096 -14.37028,4.995532 -9.86247,0.671524 -21.40327,3.57483 -31.41342,7.90264 -31.5496,13.64021 -54.4313,45.93157 -56.70412,80.02265 -0.66198,9.92929 -1.74361,13.08171 -4.9971,14.5641 -2.95765,1.3476 -4.17577,1.33742 -7.06418,-0.059 z" />
		</symbol>

		<symbol id="icon-info" viewBox="0 0 91 187" >
			<path d="M 11.875,184.56321 C 3.1721518,180.51472 -0.7280495,171.72661 1.3246294,160.79064 3.1765834,150.92406 9.4780008,132.82781 19.568929,108.39714 29.02516,85.503101 30.050041,81.38505 26.934985,78.799782 24.485989,76.767296 21.283407,77.971575 13.460713,83.866564 L 6.875,88.829392 4.6875,86.151216 C 3.484375,84.678219 2.5,82.739286 2.5,81.842475 2.5,79.456505 16.84899,68.994105 26.25,64.525438 37.907007,58.984406 51.045346,58.38336 60.405599,62.962905 68.731246,67.036265 72.5,73.097429 72.5,82.413936 72.5,87.39769 70.256867,94.883415 62.62494,115.36874 47.64592,155.57485 46.704599,160 53.130941,160 c 1.574908,0 6.817415,-3.09375 11.650016,-6.875 4.832602,-3.78125 9.040617,-6.875 9.351144,-6.875 0.310529,0 1.304148,1.78542 2.208041,3.96762 1.619116,3.90889 1.551973,4.04974 -4.535849,9.51549 -10.625523,9.53978 -24.801893,19.6345 -31.880106,22.70121 -8.374872,3.62853 -22.51799,4.70197 -28.049187,2.12889 z M 54.809757,41.227615 c -7.131687,-3.767792 -10.212313,-9.816386 -9.564062,-18.77837 0.426043,-5.88997 1.30323,-8.358732 4.274286,-12.029571 11.147935,-13.7736411 32.188845,-13.0897986 39.141329,1.272118 1.42378,2.941136 2.576336,6.998049 2.561237,9.015363 -0.0356,4.756409 -3.834844,12.925128 -7.637208,16.420685 -7.277599,6.690382 -20.347453,8.552499 -28.775582,4.099775 z" />
		</symbol>

		<symbol id="icon-usage" viewBox="0 0 73 31">
		  <path
		     d="m 55.6557,1014.4176 12.797165,7.0924 q 0.963642,0.5397 1.272008,0.9637 0.327638,0.424 0.327638,1.0793 0,0.8287 -0.597458,1.4454 -0.597458,0.5975 -1.387645,0.5975 -0.520366,0 -1.5611,-0.5782 l -19.060838,-10.6001 19.060838,-10.6 q 1.040734,-0.5589 1.541827,-0.5589 0.80946,0 1.406918,0.5974 0.597458,0.5975 0.597458,1.4262 0,0.6553 -0.327638,1.0793 -0.308366,0.424 -1.272008,0.9636 l -12.797165,7.0924 z" />
		  <path
		     d="m 91.599546,1001.1965 -12.662256,27.2903 q -0.481821,1.0215 -0.867277,1.3298 -0.501094,0.4048 -1.214189,0.4048 -0.80946,0 -1.406918,-0.5782 -0.578185,-0.5782 -0.578185,-1.3106 0,-0.5203 0.462548,-1.5225 L 88.034071,999.539 q 0.481821,-1.02146 0.848005,-1.32982 0.520366,-0.40473 1.214188,-0.40473 0.80946,0 1.387645,0.57818 0.578185,0.55892 0.578185,1.29128 0,0.52039 -0.462548,1.52259 z" />
		  <path
		     d="m 111.29639,1014.4176 -12.797167,-7.0924 q -0.963642,-0.5396 -1.29128,-0.9636 -0.308366,-0.424 -0.308366,-1.0793 0,-0.8287 0.597458,-1.4262 0.597458,-0.5974 1.406918,-0.5974 0.501093,0 1.541827,0.5589 l 19.06084,10.6 -19.06084,10.6001 q -1.040734,0.5782 -1.541827,0.5782 -0.80946,0 -1.406918,-0.5975 -0.597458,-0.5974 -0.597458,-1.4454 0,-0.6553 0.308366,-1.0793 0.327638,-0.424 1.29128,-0.9637 l 12.797167,-7.0924 z" />
		</symbol>
	</defs>
</svg>
