<?xml version="1.0" encoding="UTF-8" standalone="no"?>
<svg
    xmlns:svg="http://www.w3.org/2000/svg"
    xmlns="http://www.w3.org/2000/svg"
    viewBox="0 0 1010 290">
  
    <defs>
        <filter id="drop-shadow" style="color-interpolation-filters:sRGB">
            <feFlood id="feFlood5847" result="flood" flood-color="rgb(51,51,51)" flood-opacity="0.458824" />
            <feComposite id="feComposite5849" result="composite1" operator="in" in2="SourceGraphic" in="flood" />
            <feGaussianBlur id="feGaussianBlur5851" result="blur" stdDeviation="3" in="composite1" />
            <feOffset id="feOffset5853" result="offset" dy="4" dx="4" />
            <feComposite id="feComposite5855" result="composite2" operator="over" in2="offset" in="SourceGraphic" />
        </filter>
    </defs>

    <g
     transform="translate(-54.665858,-24.226164)"
     style="filter:url(#drop-shadow); fill: #f2f2f2;"
     id="svg-logo" >
    <path
      id="svg-logo-mic"
       d="m 184.93473,94.613935 49.10374,17.643325 1.54241,-4.29651 C 244.39006,83.466598 231.61592,56.378499 207.13036,47.579647 L 154.29763,28.597138 c -5.15426,-1.855019 -10.52296,-2.795447 -15.95712,-2.795447 -19.85576,0 -37.7058,12.557117 -44.422276,31.248542 l -1.543265,4.295652 52.576091,18.891223 c 1.32022,0.477103 2.00401,1.933388 1.53379,3.247575 -0.46418,1.281461 -1.9308,2.004006 -3.24671,1.533792 L 90.658602,66.122946 82.28432,89.429527 134.86041,108.32159 c 1.32022,0.47538 2.00487,1.93081 1.53379,3.24758 -0.4659,1.28232 -1.93941,2.00486 -3.24671,1.53465 L 80.571399,94.206588 72.197117,117.51315 124.77321,136.40523 c 1.32021,0.47538 2.00487,1.9308 1.53379,3.25102 -0.4616,1.2806 -1.9308,2.00917 -3.24671,1.52862 l -52.582984,-18.89552 -8.369976,23.3083 52.57351,18.89122 c 0.63987,0.22822 1.15056,0.69585 1.4425,1.30988 0.28764,0.61059 0.32123,1.30299 0.0913,1.93942 -0.4616,1.27974 -1.93942,2.00314 -3.24671,1.52949 l -52.695801,-18.93601 -1.396001,4.59104 c -6.7182,22.06043 3.496461,45.30759 23.456429,55.59459 l 0,37.94952 0.12229,0.0448 -0.12229,52.28156 32.648853,0 0.54427,-39.91993 0.14727,0.0568 37.58178,-26.26566 c 1.17209,0.0861 2.34591,0.14813 3.52316,0.14813 19.09964,0 36.19096,-11.40742 43.54472,-29.06197 l 1.84727,-4.42913 -49.21829,-17.69502 c -0.63642,-0.22305 -1.14539,-0.68724 -1.43992,-1.30213 -0.28592,-0.61576 -0.31692,-1.30816 -0.093,-1.94459 0.45385,-1.27974 1.93942,-2.00659 3.24758,-1.53379 l 49.10288,17.64507 8.37514,-23.30572 -49.10374,-17.64593 c -0.63729,-0.22736 -1.14539,-0.69326 -1.43476,-1.30644 -0.28591,-0.61058 -0.32122,-1.30471 -0.0939,-1.94458 0.45902,-1.27974 1.93942,-2.00401 3.24758,-1.52949 l 49.10288,17.64163 8.37515,-23.30658 -49.10203,-17.64249 c -1.31505,-0.47538 -2.00228,-1.93339 -1.52948,-3.25102 0.45815,-1.27974 1.93511,-1.99969 3.24757,-1.53206 l 49.09858,17.64592 8.37428,-23.30657 -49.09772,-17.643331 c -0.63728,-0.22994 -1.14625,-0.69068 -1.44164,-1.306436 -0.28419,-0.619201 -0.3152,-1.308159 -0.0922,-1.942861 0.44696,-1.25132 1.92822,-1.971281 3.23983,-1.501067 z m 33.50315,34.047405 -40.50383,-14.55939 c -5.91211,-2.11769 -12.81719,1.15056 -14.93057,7.04115 -2.18055,6.06024 0.98176,12.75432 7.03684,14.93229 l 40.50986,14.55768 -2.1995,6.11622 -40.509,-14.55768 c -5.91212,-2.13663 -12.81203,1.14626 -14.92541,7.03685 -1.05755,2.9341 -0.90511,6.10589 0.42371,8.92803 1.33314,2.82042 3.67818,4.95447 6.61314,6.0034 l 40.50899,14.55854 -2.19863,6.11537 -40.509,-14.5551 c -5.91298,-2.14094 -12.81634,1.15056 -14.92972,7.03684 -1.05496,2.9341 -0.90511,6.09986 0.42371,8.91856 1.32797,2.82128 3.68162,4.95878 6.61314,6.00685 l 39.89754,14.34066 c -6.72078,11.75104 -19.20642,19.11772 -32.98557,19.11772 -4.37058,0 -8.68948,-0.75958 -12.83873,-2.25203 L 91.104703,204.46393 c -17.556367,-6.31 -27.695243,-24.22807 -24.611295,-42.17542 l 43.381092,15.58853 c 5.92676,2.13922 12.81633,-1.15056 14.9323,-7.03684 1.05496,-2.9341 0.90253,-6.10072 -0.4263,-8.92545 -1.32882,-2.823 -3.67731,-4.95446 -6.61141,-6.00943 l -43.984786,-15.80555 2.196053,-6.11623 43.984783,15.80642 c 5.93107,2.14007 12.82065,-1.15745 14.9323,-7.03685 2.17539,-6.05593 -0.98348,-12.75347 -7.03684,-14.93229 l -43.984787,-15.80642 2.196053,-6.11449 43.984784,15.80469 c 5.92676,2.14265 12.81634,-1.15056 14.9323,-7.03685 2.17797,-6.05249 -0.97918,-12.75433 -7.03684,-14.932278 l -43.984788,-15.803828 2.196053,-6.1145 43.980485,15.804692 c 5.93106,2.134046 12.8172,-1.141087 14.93488,-7.036843 2.18055,-6.053356 -0.98176,-12.755193 -7.03426,-14.932299 L 104.31977,55.94015 c 6.39267,-12.726773 19.55004,-21.002879 34.02505,-21.002879 4.37488,0 8.7067,0.759576 12.86628,2.256337 l 52.82757,18.983371 c 9.57393,3.438761 17.22652,10.397235 21.56524,19.599988 3.67817,7.80417 4.58845,16.432505 2.67918,24.711183 L 188.02901,86.026076 c -5.91729,-2.131463 -12.81203,1.146253 -14.92972,7.036843 -1.05841,2.936682 -0.90684,6.100721 0.42199,8.923701 1.32883,2.82301 3.67903,4.95447 6.61399,6.00427 l 40.50469,14.55768 -2.20208,6.11277 z m -103.05861,121.34011 -23.922338,-8.33036 0,-24.09544 49.472338,14.5594 -25.55,17.8664 z m -8.95042,7.49156 -0.46591,34.18436 -14.483617,0 0.09129,-39.74081 0,-0.54944 14.867707,5.17407 -0.009,0.93182 z" />
    <path
       id="svg-logo-s"
       d="m 393.47931,104.0867 c 0,-22.687503 -23.5125,-24.750004 -33.20625,-24.750004 -26.60626,0 -47.64376,15.468753 -47.64376,36.918754 0,30.31876 42.28126,42.90001 42.28126,78.16876 0,17.32501 -10.10625,27.43126 -23.92501,27.43126 -13.2,0 -19.8,-9.4875 -19.8,-19.80001 0,-14.23125 12.99375,-19.3875 24.13125,-19.3875 -0.61875,-10.725 -10.93125,-13.6125 -18.15,-13.6125 -14.4375,0 -30.31875,11.55 -30.31875,33.825 0,25.16251 20.2125,35.47501 43.725,35.47501 29.90626,0 57.95626,-16.9125 57.95626,-51.56251 0,-44.55 -46.40625,-48.675 -46.40625,-78.99376 0,-12.375001 7.63125,-18.768752 18.975,-18.768752 11.34375,0 15.2625,6.600001 15.2625,13.818752 0,6.80625 -3.7125,14.4375 -9.28125,17.7375 2.68125,3.09375 5.775,4.33125 9.4875,4.33125 10.3125,0 16.9125,-8.86875 16.9125,-20.83125 z" />
    <path
       id="svg-logo-i"
       d="m 417.05627,103.46795 c 0,9.075 7.21875,16.29375 16.29375,16.29375 9.075,0 16.5,-7.21875 16.5,-16.29375 0,-9.075001 -7.425,-16.500003 -16.5,-16.500003 -9.075,0 -16.29375,7.425002 -16.29375,16.500003 z m -4.125,27.43125 -14.025,66.20626 c -1.03125,4.95 -1.65,9.48751 -1.65,13.40626 0,17.325 9.69375,24.75 22.06875,24.75 11.1375,0 31.55625,-4.5375 43.3125,-38.15626 l -8.6625,0 c -3.09375,10.31251 -10.51875,18.15001 -18.5625,18.15001 -5.775,0 -8.45625,-1.85625 -8.45625,-7.63125 0,-1.85625 0.20625,-3.91876 0.825,-6.60001 l 14.85,-70.12501 -29.7,0 z" />
    <path
       id="svg-logo-n"
       d="m 513.09145,159.36171 c 0,13.2 -9.28126,38.56875 -9.28126,52.59376 0,11.75625 6.39376,23.30625 24.33751,23.30625 10.93125,0 26.8125,-4.33125 38.3625,-38.15626 l -8.6625,0 c -4.5375,10.72501 -8.25,18.15001 -17.325,18.15001 -6.1875,0 -8.25,-3.50625 -8.25,-8.6625 0,-11.55001 9.9,-36.50626 9.9,-53.21251 0,-16.50001 -9.69375,-23.30626 -22.89375,-23.30626 -6.39375,0 -15.46876,1.65 -24.13126,11.55001 l 2.26875,-10.72501 -29.7,0 -21.8625,103.12502 29.7,0 14.025,-66.20626 c 3.09375,-10.3125 8.6625,-18.975 16.0875,-18.975 4.95001,0 7.42501,3.7125 7.42501,10.51875 z" />
    <path
       id="svg-logo-g"
       d="m 626.92211,130.8992 -2.26875,10.72501 0,-1.2375 c 0,-5.98126 -4.95,-10.51876 -16.70625,-10.51876 -35.88751,0 -53.00626,44.34376 -53.00626,72.18751 0,24.54376 13.40625,33.20626 27.43125,33.20626 10.72501,0 18.76876,-4.95 24.75001,-11.34375 l -2.475,10.93125 c -15.46875,4.74375 -33.61876,13.40625 -33.61876,30.73125 0,13.40626 10.51875,20.00626 23.10001,20.00626 13.6125,0 30.9375,-5.56875 37.125,-35.06251 l 3.09375,-14.85 c 12.7875,-3.50625 28.46251,-11.34375 36.50626,-38.56876 l -8.6625,0 c -5.775,17.94376 -13.40626,24.95626 -25.98751,29.49376 l 20.41876,-95.70002 -29.70001,0 z m -12.58125,11.75626 c 6.6,0 8.25,5.3625 8.45625,7.63125 l -10.51875,48.88125 c -2.8875,10.51876 -10.93125,16.08751 -16.5,16.08751 -3.7125,0 -10.31251,-0.20625 -10.31251,-16.08751 0,-19.3875 11.34376,-56.5125 28.87501,-56.5125 z M 582.3721,262.69297 c 0,-8.25 9.69376,-13.6125 20.21251,-17.53125 l -1.2375,5.98125 c -2.68125,12.16875 -7.63125,18.35625 -11.9625,18.35625 -4.53751,0 -7.01251,-3.91875 -7.01251,-6.80625 z" />
    <path
       id="svg-logo-e"
       d="m 689.79938,200.61171 c 0,-2.475 0.20625,-5.3625 0.4125,-8.25 24.75001,-1.44375 47.43751,-19.8 47.43751,-43.51875 0,-10.3125 -4.33125,-19.80001 -22.6875,-19.80001 -42.28126,0 -55.68751,49.70626 -55.68751,73.42501 0,23.30626 12.7875,32.79376 32.175,32.79376 27.43126,0 44.96251,-19.18125 56.71876,-38.15626 l -7.0125,0 c -10.3125,11.75626 -20.2125,20.83126 -36.50626,20.83126 -9.9,0 -14.85,-3.3 -14.85,-17.32501 z m 31.96876,-52.18125 c 0,17.11875 -14.02501,33 -29.90626,34.03125 4.125,-20.41875 14.23125,-42.4875 24.75001,-42.4875 3.91875,0 5.15625,3.3 5.15625,8.45625 z" />
    <path
       id="svg-logo-r"
       d="m 754.93571,130.8992 -21.86251,103.12502 29.70001,0 16.5,-78.37501 c 5.15625,-4.74375 8.86875,-7.8375 15.05625,-7.8375 6.1875,0 0.4125,13.6125 11.96251,13.6125 10.10625,0 14.85,-7.8375 14.85,-15.05625 0,-7.8375 -4.95,-15.46876 -14.23125,-15.46876 -9.90001,0 -17.73751,6.6 -24.95626,12.78751 l 2.68125,-12.78751 -29.7,0 z" />
    <path
       id="svg-logo-js-j"
       d="m 929.6198,79.336696 c -34.44375,0 -72.39376,26.193754 -72.39376,53.625004 0,14.85001 7.8375,20.00626 22.06876,20.00626 -0.20625,-1.85625 -2.8875,-3.50625 -2.8875,-14.025 0,-22.06876 11.1375,-37.74376 29.08125,-45.168761 L 873.1073,241.03672 c -4.74376,21.24375 -10.31251,25.36875 -19.59376,25.36875 -5.98125,0 -14.025,-3.7125 -14.025,-14.4375 0,-7.63125 4.95,-15.2625 14.4375,-15.2625 4.125,0 7.21875,1.03125 12.375,5.3625 0.825,-3.09375 1.2375,-5.98125 1.2375,-8.25 0,-13.2 -11.9625,-13.81875 -20.2125,-13.81875 -16.29375,0 -25.1625,13.6125 -25.1625,27.6375 0,17.11875 10.93125,29.08126 30.525,29.08126 33.82501,0 47.64376,-19.38751 54.24376,-50.94376 l 30.93751,-146.437524 -8.25001,0 z" />
    <path
       id="svg-logo-js-s"
       d="m 1041.6362,104.0867 c 0,-22.687503 -23.5125,-24.750004 -33.2063,-24.750004 -26.60624,0 -47.64374,15.468753 -47.64374,36.918754 0,30.31876 42.28124,42.90001 42.28124,78.16876 0,17.32501 -10.10623,27.43126 -23.92499,27.43126 -13.2,0 -19.8,-9.4875 -19.8,-19.80001 0,-14.23125 12.99375,-19.3875 24.13126,-19.3875 -0.61875,-10.725 -10.93126,-13.6125 -18.15001,-13.6125 -14.4375,0 -30.31875,11.55 -30.31875,33.825 0,25.16251 20.2125,35.47501 43.725,35.47501 29.90629,0 57.95629,-16.9125 57.95629,-51.56251 0,-44.55 -46.40628,-48.675 -46.40628,-78.99376 0,-12.375001 7.63125,-18.768752 18.97498,-18.768752 11.3438,0 15.2625,6.600001 15.2625,13.818752 0,6.80625 -3.7125,14.4375 -9.2812,17.7375 2.6812,3.09375 5.775,4.33125 9.4875,4.33125 10.3125,0 16.9125,-8.86875 16.9125,-20.83125 z" />
    </g>
  
</svg>
